<svg xmlns="http://www.w3.org/2000/svg" width="900" height="620" viewBox="0 0 900 620">
  <rect width="900" height="620" fill="#f7fbf8"/>
  <text x="450" y="54" text-anchor="middle" font-family="Arial, sans-serif" font-size="30" font-weight="700" fill="#173323">Schema simplifie du systeme digestif</text>
  <path d="M450 92 C390 110 360 150 360 200 C360 250 398 282 438 302 C478 322 520 350 520 410 C520 470 472 506 420 508" fill="none" stroke="#2f7d5b" stroke-width="18" stroke-linecap="round"/>
  <ellipse cx="450" cy="158" rx="70" ry="44" fill="#dff4e3" stroke="#1d6b4f" stroke-width="4"/>
  <rect x="430" y="190" width="40" height="155" rx="20" fill="#ccebd5" stroke="#1d6b4f" stroke-width="4"/>
  <ellipse cx="450" cy="380" rx="92" ry="62" fill="#f7dfcf" stroke="#9a5b36" stroke-width="4"/>
  <path d="M515 398 C620 420 648 505 554 538 C470 568 322 538 352 454 C364 420 398 410 450 418" fill="none" stroke="#d08a55" stroke-width="18" stroke-linecap="round"/>
  <circle cx="450" cy="158" r="18" fill="#1d6b4f"/>
  <circle cx="450" cy="268" r="18" fill="#1d6b4f"/>
  <circle cx="450" cy="380" r="18" fill="#1d6b4f"/>
  <circle cx="548" cy="504" r="18" fill="#1d6b4f"/>
  <g font-family="Arial, sans-serif" font-size="24" font-weight="700" fill="#ffffff">
    <text x="450" y="166" text-anchor="middle">1</text>
    <text x="450" y="276" text-anchor="middle">2</text>
    <text x="450" y="388" text-anchor="middle">3</text>
    <text x="548" y="512" text-anchor="middle">4</text>
  </g>
</svg>
